<svg id="Layer_1" data-name="Layer 1" xmlns="http://www.w3.org/2000/svg" viewBox="0 0 400 300" width="406" height="306" class="illustration styles_illustrationTablet__1DWOa"><circle cx="116.59" cy="71.34" r="25" fill="#ffd200"></circle><circle cx="116.59" cy="71.34" r="39.07" fill="#ffd200" opacity="0.15"></circle><rect x="191.57" y="105.3" width="10.04" height="18.81" fill="#f07b3f"></rect><rect x="191.57" y="105.3" width="10.04" height="18.81" fill="#fff" opacity="0.44"></rect><rect x="130.64" y="119.6" width="133.79" height="9.02" fill="#f07b3f"></rect><rect x="130.64" y="119.6" width="133.79" height="9.02" opacity="0.09"></rect><polygon points="94.72 252.32 105.84 234.9 125.43 234.9 132.31 220.35 269.44 220.35 278.96 241.6 297.5 241.6 303.32 252.32 94.72 252.32" fill="#e6e6e6"></polygon><rect x="142.21" y="107.37" width="14.81" height="112.97" fill="#f07b3f"></rect><path d="M197.13,100.35c-4.54-.11-47.11-1.25-65.47-5.44v12.46H262.6V94.91C244.24,99.1,201.67,100.24,197.13,100.35Z" fill="#f07b3f"></path><rect x="142.21" y="188.53" width="14.81" height="31.81" fill="#24285b"></rect><rect x="240.42" y="107.37" width="14.81" height="112.97" fill="#f07b3f"></rect><rect x="240.42" y="188.53" width="14.81" height="31.81" fill="#24285b"></rect><path d="M197.13,92.87c-4.46,0-45.81-.23-73.64-4.25L126,98s50.41,4.06,71.09,3.18C217.81,102,268.22,98,268.22,98l2.55-9.36C242.94,92.64,201.59,92.86,197.13,92.87Z" fill="#24285b"></path></svg>